<?xml version="1.0" encoding="utf-8"?>
<!-- Generator: Adobe Illustrator 24.1.2, SVG Export Plug-In . SVG Version: 6.00 Build 0)  -->
<svg version="1.1" id="Слой_1" xmlns="http://www.w3.org/2000/svg" xmlns:xlink="http://www.w3.org/1999/xlink" x="0px" y="0px"
	 viewBox="0 0 48 48" style="enable-background:new 0 0 48 48;" xml:space="preserve">
<style type="text/css">
	.st0{fill:#212121;}
</style>
<g>
	<path class="st0" d="M19.1,25.4c-0.4-0.2-1.1-0.3-1.9-0.3h-4.6V30h4.5c0.8,0,1.4-0.1,1.9-0.3c0.8-0.4,1.2-1.2,1.2-2.3
		C20.3,26.4,19.9,25.8,19.1,25.4z"/>
	<path class="st0" d="M19.1,21.6c0.5-0.3,0.8-0.8,0.8-1.6c0-0.9-0.3-1.4-1-1.7c-0.6-0.2-1.3-0.3-2.2-0.3h-4.1v4.1h4.5
		C18,22.1,18.6,21.9,19.1,21.6z"/>
	<path class="st0" d="M32.2,21.6c-0.9,0-1.6,0.3-2.2,0.8c-0.5,0.5-0.8,1.2-1,2.1h6.2c-0.1-0.9-0.4-1.7-1-2.2
		C33.8,21.8,33.1,21.6,32.2,21.6z"/>
	<path class="st0" d="M24,0C10.7,0,0,10.7,0,24s10.7,24,24,24s24-10.7,24-24S37.3,0,24,0z M28.2,15.1h8v2.3h-8V15.1z M23.4,30.6
		c-0.3,0.6-0.8,1.1-1.3,1.4c-0.6,0.5-1.3,0.8-2.1,0.9c-0.9,0.2-1.8,0.3-2.6,0.2H8.9V14.8h9c2.3,0,3.9,0.7,4.8,2
		c0.6,0.8,0.9,1.7,0.9,2.8c0,1.1-0.3,2-0.9,2.7c-0.3,0.4-0.8,0.7-1.4,1c1,0.3,1.7,0.9,2.2,1.6s0.7,1.6,0.7,2.7
		C24.2,28.7,23.9,29.7,23.4,30.6z M30.5,29.7c0.6,0.3,1.2,0.5,2,0.5s1.5-0.2,2-0.6c0.3-0.3,0.6-0.6,0.7-0.9h3.7
		c-0.1,0.8-0.5,1.6-1.3,2.5c-1.2,1.3-3,2-5.2,2c-1.8,0-3.5-0.6-4.9-1.7c-1.4-1.1-2.1-2.9-2.1-5.5c0-2.4,0.6-4.2,1.9-5.4
		c1.3-1.3,2.9-1.9,4.9-1.9c1.2,0,2.3,0.2,3.2,0.6c1,0.4,1.8,1.1,2.4,2c0.6,0.8,1,1.8,1.1,2.8c0.1,0.6,0.1,1.5,0.1,2.7H29
		C29.1,28.2,29.6,29.1,30.5,29.7z"/>
</g>
</svg>
