<?xml version="1.0" encoding="utf-8"?>
<!-- Generator: Adobe Illustrator 24.1.2, SVG Export Plug-In . SVG Version: 6.00 Build 0)  -->
<svg version="1.1" id="Слой_1" xmlns="http://www.w3.org/2000/svg" xmlns:xlink="http://www.w3.org/1999/xlink" x="0px" y="0px"
	 viewBox="0 0 340.2 326" style="enable-background:new 0 0 340.2 326;" xml:space="preserve">
<style type="text/css">
	.st0{fill:#212121;}
</style>
<path class="st0" d="M170.1,0C76.1,0,0,74.8,0,167.1C0,241,48.7,303.7,116.3,325.7c8.5,1.6,11.6-3.6,11.6-8c0-4-0.1-14.5-0.2-28.4
	c-47.3,10.1-57.3-22.4-57.3-22.4c-7.7-19.3-18.9-24.5-18.9-24.5c-15.4-10.4,1.2-10.2,1.2-10.2c17.1,1.2,26.1,17.2,26.1,17.2
	c15.2,25.6,39.8,18.2,49.5,13.9c1.5-10.8,5.9-18.2,10.8-22.4c-37.8-4.2-77.5-18.5-77.5-82.6c-0.3-16.7,6-32.8,17.5-44.9
	c-1.9-4.2-7.7-21.2,1.5-44.2c0,0,14.2-4.5,46.8,17.1c27.9-7.5,57.2-7.5,85,0c32.3-21.5,46.6-17,46.6-17c9.2,23,3.4,40,1.7,44.2
	c11.4,12.1,17.7,28.2,17.4,44.9c0,64.2-39.8,78.3-77.6,82.5c6,5,11.5,15.3,11.5,30.9c0,22.4-0.2,40.3-0.2,45.8c0,4.4,3,9.6,11.7,7.9
	c68.1-21.9,116.8-84.6,116.8-158.4C340.2,74.8,264,0,170.1,0L170.1,0z"/>
</svg>
