<?xml version="1.0" encoding="utf-8"?>
<!-- Generator: Adobe Illustrator 24.1.2, SVG Export Plug-In . SVG Version: 6.00 Build 0)  -->
<svg version="1.1" id="Слой_1" xmlns="http://www.w3.org/2000/svg" xmlns:xlink="http://www.w3.org/1999/xlink" x="0px" y="0px"
	 viewBox="0 0 48 48" style="enable-background:new 0 0 48 48;" xml:space="preserve">
<style type="text/css">
	.st0{fill:#212121;}
</style>
<path class="st0" d="M24,48C10.7,48-0.2,37.1,0,23.6C0.2,10.2,11.5-0.2,24.5,0C37.4,0.3,48.3,11.1,48,24.5
	C47.7,37.3,37.2,48.1,24,48z M9.6,12.4c0,7.1,0,14.2,0,21.3c1.3,0,2.6,0,3.9,0c0-0.2,0-0.3,0-0.5c0-2.3,0-4.6,0-7
	c0-0.8,0.1-1.7,0.3-2.5c0.4-1.6,1.9-2.6,3.6-2.2c0.9,0.2,1.5,0.8,1.6,1.8c0,0.3,0.1,0.7,0.1,1c0,3,0,6,0,8.9c0,0.2,0,0.3,0,0.5
	c1.3,0,2.6,0,3.9,0c0-0.1,0-0.2,0-0.2c0-3,0-6,0-9.1c0-0.6,0-1.3-0.1-1.9c-0.2-1.5-0.8-2.8-2.3-3.5c-2.2-1.2-4.9-0.7-6.7,1.2
	c-0.1,0.1-0.2,0.3-0.3,0.4l-0.1-0.1c0-2.7,0-5.4,0-8C12.2,12.4,10.9,12.4,9.6,12.4z M28.9,33.7c0-0.2,0-0.4,0-0.5c0-2.4,0-4.7,0-7.1
	c0-0.6,0-1.1,0.1-1.7c0.3-2.1,1.6-3.2,3.5-2.9c1,0.1,1.7,0.7,1.8,1.7c0.1,0.5,0.1,1.1,0.1,1.6c0,2.8,0,5.6,0,8.4c0,0.2,0,0.3,0,0.5
	c1.3,0,2.6,0,3.9,0c0-0.2,0-0.3,0-0.5c0-2.6,0-5.1,0-7.7c0-0.9,0-1.8-0.1-2.8c-0.2-1.9-1-3.4-2.9-4c-2.2-0.7-4.2-0.4-5.9,1.2
	c-0.2,0.2-0.3,0.3-0.6,0.6c0-2.8,0-5.5,0-8.1c-1.3,0-2.6,0-3.9,0c0,7.1,0,14.2,0,21.3C26.3,33.7,27.6,33.7,28.9,33.7z"/>
</svg>
