<?xml version="1.0" encoding="utf-8"?>
<!-- Generator: Adobe Illustrator 24.1.2, SVG Export Plug-In . SVG Version: 6.00 Build 0)  -->
<svg version="1.1" id="Слой_1" xmlns="http://www.w3.org/2000/svg" xmlns:xlink="http://www.w3.org/1999/xlink" x="0px" y="0px"
	 viewBox="0 0 131.1 135.8" style="enable-background:new 0 0 131.1 135.8;" xml:space="preserve">
<style type="text/css">
	.st0{fill:#FFFFFF;}
</style>
<path class="st0" d="M129.1,123.7L96.8,90.1c19.5-23.2,16.4-57.8-6.7-77.2C66.9-6.6,32.3-3.6,12.8,19.6
	C-6.6,42.8-3.6,77.4,19.6,96.8c9.9,8.3,22.4,12.8,35.2,12.8c11.3,0,22.2-3.4,31.4-9.9l32.6,33.9c2.7,2.8,7.3,2.9,10.1,0.2
	S131.9,126.6,129.1,123.7L129.1,123.7L129.1,123.7z M54.8,14.3c22.4,0,40.5,18.1,40.6,40.5c0,22.4-18.1,40.5-40.5,40.6
	c-22.4,0-40.5-18.1-40.6-40.5c0,0,0,0,0,0C14.4,32.5,32.5,14.3,54.8,14.3L54.8,14.3z"/>
</svg>
