<?xml version="1.0" encoding="utf-8"?>
<!-- Generator: Adobe Illustrator 24.1.2, SVG Export Plug-In . SVG Version: 6.00 Build 0)  -->
<svg version="1.1" id="Слой_1" xmlns="http://www.w3.org/2000/svg" xmlns:xlink="http://www.w3.org/1999/xlink" x="0px" y="0px"
	 viewBox="0 0 644 644" style="enable-background:new 0 0 644 644;" xml:space="preserve">
<style type="text/css">
	.st0{fill:#F6F6F6;}
	.st1{opacity:0.5;fill:#BCBCBC;}
</style>
<rect class="st0" width="644" height="644"/>
<path class="st1" d="M493.1,392.9c-25.9-26-57.3-45.7-92-57.7c38-26.1,60.8-69.2,60.8-115.3c0-77.1-62.8-139.9-139.9-139.9
	s-139.9,62.8-139.9,139.9c0,46.1,22.7,89.2,60.8,115.3C145.4,369.1,80,460.9,79.9,564h37.8c0-112.6,91.6-204.2,204.2-204.2
	S526.2,451.4,526.2,564H564C564.2,499.8,538.7,438.2,493.1,392.9z M219.9,219.9c0-56.4,45.7-102.1,102.1-102.1
	c56.4,0,102.1,45.7,102.1,102.1c0,56.4-45.7,102.1-102.1,102.1c0,0,0,0,0,0C265.6,321.9,219.9,276.2,219.9,219.9L219.9,219.9z"/>
</svg>
