<?xml version="1.0" encoding="utf-8"?>
<!-- Generator: Adobe Illustrator 24.1.2, SVG Export Plug-In . SVG Version: 6.00 Build 0)  -->
<svg version="1.1" id="Слой_1" xmlns="http://www.w3.org/2000/svg" xmlns:xlink="http://www.w3.org/1999/xlink" x="0px" y="0px"
	 viewBox="0 0 968.6 219.3" style="enable-background:new 0 0 968.6 219.3;" xml:space="preserve">
<style type="text/css">
	.st0{fill:#41B883;}
	.st1{fill:#34495E;}
	.st2{fill:#273849;}
</style>
<g>
	<g>
		<path class="st0" d="M153.6,1.8l-28.8,49.8L96.1,1.8H0.3l124.6,215.8L249.4,1.8H153.6z"/>
		<path class="st1" d="M153.6,1.8l-28.8,49.8L96.1,1.8h-46l74.8,129.5L199.6,1.8L153.6,1.8z"/>
	</g>
	<g>
		<path class="st2" d="M302.9,140c-1.3,0-2.6-0.3-3.8-0.9c-1.2-0.6-2-1.4-2.4-2.5l-24.2-78.4c-0.1-0.3-0.1-0.6-0.1-0.9
			c0-0.8,0.3-1.5,0.9-2.1c0.6-0.6,1.4-1.1,2.4-1.5c0.9-0.4,1.8-0.5,2.7-0.5c0.9,0,1.6,0.2,2.3,0.5c0.7,0.4,1.1,0.9,1.4,1.7l20.8,70
			l20.6-70c0.2-0.8,0.7-1.4,1.3-1.7c0.6-0.4,1.4-0.5,2.2-0.5c0.9,0,1.9,0.2,2.8,0.6c0.9,0.4,1.7,0.9,2.4,1.5
			c0.6,0.6,0.9,1.3,0.9,2.2c0,0.1,0,0.2-0.1,0.4c0,0.2-0.1,0.3-0.1,0.5L309,136.6c-0.3,1.1-1.1,1.9-2.2,2.5
			C305.6,139.7,304.3,140,302.9,140z"/>
		<path class="st2" d="M360.5,140.2c-4.3,0-8.3-1.1-11.8-3.2c-3.5-2.1-6.4-4.9-8.5-8.4c-2.1-3.5-3.2-7.2-3.2-11.1V86.9
			c0-0.9,0.5-1.7,1.5-2.4c1-0.7,2.1-1.1,3.5-1.1c1.3,0,2.5,0.4,3.4,1.1c0.9,0.7,1.4,1.6,1.4,2.4v30.7c0,2.3,0.6,4.5,1.8,6.6
			c1.2,2.1,2.8,3.9,4.9,5.2c2,1.3,4.3,2,6.8,2c2.5,0,4.8-0.7,6.8-2c2-1.3,3.7-3.1,4.8-5.2c1.2-2.1,1.8-4.3,1.8-6.6V86.8
			c0-0.9,0.5-1.7,1.5-2.4c1-0.7,2.2-1,3.4-1c1.5,0,2.7,0.3,3.5,1c0.9,0.7,1.3,1.5,1.3,2.4v30.8c0,4-1,7.7-3.1,11.1
			c-2.1,3.4-4.9,6.2-8.4,8.3C368.5,139.1,364.6,140.2,360.5,140.2z"/>
		<path class="st2" d="M421.2,140.2c-5.1,0-9.6-1-13.6-2.9c-3.9-1.9-7-4.6-9.3-8c-2.3-3.4-3.4-7.4-3.4-12v-12.4
			c0-4,1.1-7.7,3.2-11.1c2.2-3.4,5-6.1,8.5-8.1c3.5-2,7.4-3.1,11.7-3.1c4.1,0,7.8,0.9,11.3,2.8c3.4,1.9,6.2,4.4,8.3,7.7
			c2.1,3.2,3.1,7,3.1,11.2c0,3.1-0.5,5.4-1.5,6.8c-1,1.4-2.3,2.2-3.9,2.5c-1.6,0.3-3.2,0.5-5,0.5h-25.9v3.5c0,4.4,1.6,7.9,4.7,10.4
			c3.1,2.6,7.2,3.8,12.1,3.8c2.9,0,5.2-0.4,7-1.2c1.7-0.8,3.1-1.6,4.2-2.3c1.1-0.7,2.1-1.1,2.9-1.1c0.9,0,1.6,0.3,2.2,0.8
			c0.6,0.5,1,1.1,1.4,1.8c0.3,0.7,0.5,1.3,0.5,1.9c0,1-0.7,2.2-2.2,3.5c-1.5,1.3-3.6,2.4-6.4,3.4C428.2,139.7,425,140.2,421.2,140.2
			z M404.7,107.5h21.8c2.1,0,3.5-0.3,4.2-0.8c0.7-0.5,1-1.5,1-3c0-2.4-0.6-4.5-1.7-6.5c-1.1-2-2.7-3.6-4.8-4.9c-2-1.3-4.4-1.9-7-1.9
			c-2.4,0-4.7,0.6-6.7,1.7c-2,1.1-3.7,2.7-5,4.7c-1.3,2-1.9,4.1-1.9,6.5V107.5z"/>
		<path class="st2" d="M455.4,140c-1.8,0-3.3-0.6-4.5-1.9c-1.2-1.3-1.8-2.7-1.8-4.2c0-1.7,0.6-3.2,1.8-4.4c1.2-1.2,2.7-1.8,4.5-1.8
			c1.6,0,3,0.6,4.2,1.8c1.2,1.2,1.8,2.7,1.8,4.4c0,1.6-0.6,3-1.8,4.2C458.3,139.3,457,140,455.4,140z"/>
		<path class="st2" d="M466.3,166.3c-1.9,0-3.2-0.5-4-1.4c-0.8-0.9-1.2-1.9-1.2-2.9c0-1.3,0.4-2.4,1.2-3.2c0.8-0.8,1.7-1.2,2.8-1.2
			c2.3,0,4-0.6,5-1.8c1.1-1.2,1.7-2.8,2-4.9c0.3-2.1,0.4-4.4,0.4-7V86.8c0-1,0.5-1.8,1.4-2.5c0.9-0.6,2.1-0.9,3.4-0.9
			c1.4,0,2.6,0.3,3.5,0.9c0.9,0.6,1.4,1.5,1.4,2.5V144c0,4.3-0.6,8.2-1.7,11.6c-1.1,3.4-2.8,6-5.2,7.9
			C473.2,165.3,470.1,166.3,466.3,166.3z M477.4,68c-1.7,0-3.1-0.6-4.3-1.7c-1.2-1.1-1.8-2.5-1.8-4c0-1.5,0.6-2.8,1.8-3.9
			c1.2-1.1,2.7-1.7,4.3-1.7c1.7,0,3.2,0.6,4.3,1.7c1.1,1.1,1.7,2.4,1.7,3.9c0,1.5-0.6,2.8-1.7,4C480.6,67.5,479.2,68,477.4,68z"/>
		<path class="st2" d="M512.5,140.2c-3.8,0-7.1-0.5-10-1.5c-2.9-1-5.2-2.1-6.8-3.5c-1.7-1.3-2.5-2.7-2.5-4c0-0.6,0.2-1.3,0.5-1.9
			c0.3-0.7,0.7-1.3,1.2-1.8c0.5-0.5,1.1-0.8,1.7-0.8c0.9,0,2,0.5,3.1,1.4c1.1,0.9,2.6,1.8,4.5,2.8c1.9,0.9,4.6,1.4,8.1,1.4
			c4.2,0,7.1-0.8,8.7-2.3c1.7-1.5,2.5-3.2,2.5-5.1c0-2.4-0.7-4.3-2.1-5.6c-1.4-1.3-3.2-2.3-5.4-3.1c-2.2-0.7-4.5-1.5-7-2.2
			c-2.4-0.7-4.8-1.6-7-2.7c-2.2-1.1-4-2.6-5.4-4.5c-1.4-1.9-2.1-4.5-2.1-7.7c0-2.6,0.6-5.1,1.9-7.7c1.3-2.5,3.3-4.6,6.1-6.3
			c2.8-1.7,6.6-2.5,11.3-2.5c2.8,0,5.4,0.3,8,0.9c2.6,0.6,4.6,1.4,6.2,2.4c1.6,1,2.4,2,2.4,3.1c0,0.5-0.2,1.1-0.5,1.9
			c-0.3,0.8-0.7,1.5-1.3,2.1c-0.5,0.6-1.3,0.9-2.1,0.9c-0.6,0-1.5-0.3-2.7-0.9c-1.1-0.6-2.5-1.2-4.1-1.7c-1.6-0.5-3.6-0.8-5.8-0.8
			c-2.6,0-4.7,0.5-6.3,1.4c-1.6,0.9-2.7,2-3.4,3.2c-0.7,1.2-1.1,2.5-1.1,3.7c0,2,0.7,3.5,2.1,4.6c1.4,1.1,3.2,2,5.4,2.7
			c2.2,0.7,4.6,1.3,7,2c2.4,0.7,4.8,1.6,7,2.8c2.2,1.2,4,2.9,5.4,5c1.4,2.1,2.1,5,2.1,8.5c0,4.8-1.7,8.6-5.2,11.5
			C523.6,138.8,518.7,140.2,512.5,140.2z"/>
		<path class="st2" d="M573,139.3c-1.2,0-2.3-0.3-3.4-0.9c-1.1-0.6-1.6-1.5-1.6-2.7V56.5c0-0.9,0.4-1.7,1.1-2.4
			c0.7-0.6,1.7-1,2.9-1.1h22.3c4.7,0,9,0.8,12.7,2.5c3.8,1.7,6.8,4.4,9,8.1c2.2,3.7,3.3,8.6,3.3,14.9v1.1c0,6.1-1.1,11.1-3.4,14.9
			c-2.2,3.8-5.3,6.5-9.1,8.2c-3.9,1.7-8.2,2.5-13,2.5h-15.9v30.5c0,1.2-0.5,2.1-1.5,2.7C575.3,139,574.2,139.3,573,139.3z
			 M577.9,96.9h15.9c4.9,0,8.7-1.4,11.4-4.1c2.8-2.8,4.1-7,4.1-12.6v-1.4c0-5.7-1.4-10-4.1-12.7c-2.8-2.7-6.6-4.1-11.4-4.1h-15.9
			V96.9z"/>
		<path class="st2" d="M633.4,139.3c-1.3,0-2.5-0.4-3.4-1.1c-0.9-0.7-1.4-1.6-1.4-2.4V86.8c0-1,0.5-1.8,1.4-2.5
			c0.9-0.6,2-0.9,3.4-0.9c1.3,0,2.4,0.3,3.3,0.9c0.9,0.6,1.3,1.5,1.3,2.5v5.5c0.9-1.7,2-3.2,3.5-4.7c1.5-1.5,3.2-2.7,5.2-3.6
			c2-0.9,4.2-1.4,6.7-1.4h4c1,0,1.9,0.4,2.7,1.3c0.7,0.9,1.1,1.9,1.1,3.2c0,1.2-0.4,2.2-1.1,3.1c-0.7,0.9-1.6,1.3-2.7,1.3h-4
			c-2.5,0-4.9,0.7-7.2,2.1c-2.3,1.4-4.1,3.4-5.6,6c-1.5,2.6-2.2,5.6-2.2,9.3v26.9c0,0.9-0.5,1.7-1.5,2.4
			C636.1,138.9,634.9,139.3,633.4,139.3z"/>
		<path class="st2" d="M679.3,140.2c-4.4,0-8.2-1.3-11.3-3.8c-3.1-2.6-4.7-6.5-4.7-11.9c0-4.3,1.2-7.7,3.5-10.1c2.4-2.4,5.6-4,9.7-5
			c4.1-0.9,8.9-1.4,14.3-1.4h5.7v-2.5c0-2.4-0.4-4.7-1.3-6.9c-0.9-2.2-2.2-4.1-4.1-5.5c-1.8-1.5-4.4-2.2-7.6-2.2
			c-2.8,0-4.9,0.3-6.5,0.8c-1.6,0.6-2.9,1.1-3.8,1.7c-0.9,0.6-1.8,0.9-2.5,0.9c-1.2,0-2.1-0.6-2.7-1.7c-0.6-1.1-0.9-2.2-0.9-3.2
			c0-1.3,0.9-2.4,2.6-3.4c1.7-1,3.9-1.8,6.5-2.5c2.6-0.6,5.1-0.9,7.7-0.9c5.5,0,9.9,1.1,13.2,3.3c3.3,2.2,5.7,5,7.1,8.5
			c1.5,3.5,2.2,7.2,2.2,11.1v30.2c0,0.9-0.5,1.8-1.4,2.5c-0.9,0.7-2.1,1.1-3.5,1.1c-1.3,0-2.3-0.4-3.2-1.1c-0.9-0.7-1.3-1.5-1.3-2.5
			V131c-2,2.4-4.5,4.5-7.4,6.4C686.8,139.3,683.3,140.2,679.3,140.2z M682.4,132.3c2.3,0,4.5-0.6,6.7-1.9c2.2-1.3,4-2.8,5.4-4.7
			c1.5-1.9,2.2-3.7,2.2-5.4v-6.1h-4.1c-3.3,0-6.4,0.2-9.4,0.6c-2.9,0.4-5.3,1.2-7.1,2.5c-1.8,1.3-2.7,3.4-2.7,6.2
			c0,3.1,0.9,5.3,2.6,6.7C677.6,131.6,679.8,132.3,682.4,132.3z"/>
		<path class="st2" d="M741.5,140.2c-5.4,0-9.9-1-13.4-3.1c-3.5-2-6.1-4.8-7.8-8.2c-1.7-3.4-2.5-7.3-2.5-11.6v-11.8
			c0-4.2,0.8-8.1,2.5-11.6c1.7-3.5,4.3-6.2,7.8-8.3c3.5-2,7.9-3.1,13.3-3.1c3.5,0,6.5,0.4,9.1,1.3c2.6,0.9,4.6,1.9,6,3.2
			c1.4,1.3,2.1,2.5,2.1,3.7c0,0.6-0.2,1.3-0.5,2.1c-0.4,0.7-0.8,1.4-1.4,1.9c-0.6,0.6-1.3,0.8-2.1,0.8c-0.8,0-1.6-0.4-2.5-1.1
			c-0.9-0.7-2.1-1.4-3.7-2.1c-1.5-0.7-3.7-1-6.4-1c-4.8,0-8.4,1.3-10.8,3.8c-2.4,2.5-3.6,5.9-3.6,10.3v11.8c0,4.3,1.2,7.7,3.6,10.3
			c2.4,2.5,6,3.8,10.9,3.8c2.8,0,5-0.4,6.6-1.1c1.6-0.7,2.8-1.5,3.7-2.1c0.9-0.7,1.8-1,2.7-1c0.9,0,1.6,0.3,2.2,0.8
			c0.6,0.5,1.1,1.1,1.5,1.8c0.4,0.7,0.5,1.4,0.5,2.1c0,1.2-0.7,2.4-2.2,3.7c-1.5,1.3-3.6,2.4-6.3,3.3S745,140.2,741.5,140.2z"/>
		<path class="st2" d="M788.4,139.3c-6.4,0-11.2-1.4-14.6-4.2c-3.3-2.8-5-7.4-5-13.6V60.7c0-1,0.5-1.8,1.5-2.5
			c1-0.6,2.1-0.9,3.3-0.9c1.3,0,2.4,0.3,3.4,0.9c1,0.6,1.5,1.5,1.5,2.5v22.6h14.9c0.9,0,1.7,0.4,2.2,1.2c0.5,0.8,0.8,1.7,0.8,2.7
			c0,1-0.3,1.9-0.8,2.7c-0.5,0.7-1.2,1.1-2.2,1.1h-14.9v30.4c0,3.4,0.7,5.8,2.2,7.1c1.5,1.4,4,2.1,7.6,2.1h3.7
			c1.4,0,2.5,0.4,3.2,1.3c0.7,0.9,1.1,1.8,1.1,2.9c0,1.1-0.4,2.1-1.1,3c-0.7,0.9-1.8,1.4-3.2,1.4H788.4z"/>
		<path class="st2" d="M810.3,68c-1.7,0-3.1-0.6-4.3-1.7c-1.2-1.1-1.8-2.5-1.8-4c0-1.5,0.6-2.8,1.8-3.9c1.2-1.1,2.7-1.7,4.3-1.7
			c1.7,0,3.2,0.6,4.3,1.7c1.1,1.1,1.7,2.4,1.7,3.9c0,1.5-0.6,2.8-1.7,4C813.5,67.5,812.1,68,810.3,68z M810.3,139.3
			c-1.4,0-2.6-0.4-3.5-1.1c-0.9-0.7-1.4-1.6-1.4-2.4V86.8c0-1,0.5-1.8,1.4-2.5c0.9-0.6,2.1-0.9,3.5-0.9c1.3,0,2.5,0.3,3.5,0.9
			c1,0.6,1.5,1.5,1.5,2.5v48.9c0,0.9-0.5,1.7-1.5,2.4C812.8,138.9,811.7,139.3,810.3,139.3z"/>
		<path class="st2" d="M850.8,140.2c-5.4,0-9.9-1-13.4-3.1c-3.5-2-6.1-4.8-7.8-8.2c-1.7-3.4-2.5-7.3-2.5-11.6v-11.8
			c0-4.2,0.8-8.1,2.5-11.6c1.7-3.5,4.3-6.2,7.8-8.3c3.5-2,7.9-3.1,13.3-3.1c3.5,0,6.5,0.4,9.1,1.3c2.6,0.9,4.6,1.9,6,3.2
			c1.4,1.3,2.1,2.5,2.1,3.7c0,0.6-0.2,1.3-0.5,2.1c-0.4,0.7-0.8,1.4-1.4,1.9c-0.6,0.6-1.3,0.8-2.1,0.8c-0.8,0-1.6-0.4-2.5-1.1
			c-0.9-0.7-2.1-1.4-3.7-2.1c-1.5-0.7-3.7-1-6.4-1c-4.8,0-8.4,1.3-10.8,3.8c-2.4,2.5-3.6,5.9-3.6,10.3v11.8c0,4.3,1.2,7.7,3.6,10.3
			c2.4,2.5,6,3.8,10.9,3.8c2.8,0,5-0.4,6.6-1.1c1.6-0.7,2.8-1.5,3.7-2.1c0.9-0.7,1.8-1,2.7-1c0.9,0,1.6,0.3,2.2,0.8
			c0.6,0.5,1.1,1.1,1.5,1.8c0.4,0.7,0.5,1.4,0.5,2.1c0,1.2-0.7,2.4-2.2,3.7c-1.5,1.3-3.6,2.4-6.3,3.3
			C857.4,139.8,854.3,140.2,850.8,140.2z"/>
		<path class="st2" d="M901.8,140.2c-5.1,0-9.6-1-13.6-2.9c-3.9-1.9-7-4.6-9.3-8c-2.3-3.4-3.4-7.4-3.4-12v-12.4
			c0-4,1.1-7.7,3.2-11.1c2.2-3.4,5-6.1,8.5-8.1c3.5-2,7.4-3.1,11.7-3.1c4.1,0,7.8,0.9,11.3,2.8c3.4,1.9,6.2,4.4,8.3,7.7
			c2.1,3.2,3.1,7,3.1,11.2c0,3.1-0.5,5.4-1.5,6.8c-1,1.4-2.3,2.2-3.9,2.5c-1.6,0.3-3.2,0.5-5,0.5h-25.9v3.5c0,4.4,1.6,7.9,4.7,10.4
			c3.1,2.6,7.2,3.8,12.1,3.8c2.9,0,5.2-0.4,7-1.2c1.7-0.8,3.1-1.6,4.2-2.3c1.1-0.7,2.1-1.1,2.9-1.1c0.9,0,1.6,0.3,2.2,0.8
			c0.6,0.5,1,1.1,1.4,1.8s0.5,1.3,0.5,1.9c0,1-0.7,2.2-2.2,3.5c-1.5,1.3-3.6,2.4-6.4,3.4C908.9,139.7,905.6,140.2,901.8,140.2z
			 M885.3,107.5h21.8c2.1,0,3.5-0.3,4.2-0.8c0.7-0.5,1-1.5,1-3c0-2.4-0.6-4.5-1.7-6.5c-1.1-2-2.7-3.6-4.8-4.9c-2-1.3-4.4-1.9-7-1.9
			c-2.4,0-4.7,0.6-6.7,1.7c-2,1.1-3.7,2.7-5,4.7c-1.3,2-1.9,4.1-1.9,6.5V107.5z"/>
		<path class="st2" d="M948.5,140.2c-3.8,0-7.1-0.5-10-1.5c-2.9-1-5.2-2.1-6.8-3.5c-1.7-1.3-2.5-2.7-2.5-4c0-0.6,0.2-1.3,0.5-1.9
			c0.3-0.7,0.7-1.3,1.2-1.8c0.5-0.5,1.1-0.8,1.7-0.8c0.9,0,2,0.5,3.1,1.4c1.1,0.9,2.6,1.8,4.5,2.8c1.9,0.9,4.6,1.4,8.1,1.4
			c4.2,0,7.1-0.8,8.7-2.3c1.7-1.5,2.5-3.2,2.5-5.1c0-2.4-0.7-4.3-2.1-5.6c-1.4-1.3-3.2-2.3-5.4-3.1c-2.2-0.7-4.5-1.5-7-2.2
			c-2.4-0.7-4.8-1.6-7-2.7c-2.2-1.1-4-2.6-5.4-4.5c-1.4-1.9-2.1-4.5-2.1-7.7c0-2.6,0.6-5.1,1.9-7.7c1.3-2.5,3.3-4.6,6.1-6.3
			c2.8-1.7,6.6-2.5,11.3-2.5c2.8,0,5.4,0.3,8,0.9c2.6,0.6,4.6,1.4,6.2,2.4c1.6,1,2.4,2,2.4,3.1c0,0.5-0.2,1.1-0.5,1.9
			c-0.3,0.8-0.7,1.5-1.3,2.1c-0.5,0.6-1.3,0.9-2.1,0.9c-0.6,0-1.5-0.3-2.7-0.9c-1.1-0.6-2.5-1.2-4.1-1.7c-1.6-0.5-3.6-0.8-5.8-0.8
			c-2.6,0-4.7,0.5-6.3,1.4c-1.6,0.9-2.7,2-3.4,3.2c-0.7,1.2-1.1,2.5-1.1,3.7c0,2,0.7,3.5,2.1,4.6c1.4,1.1,3.2,2,5.4,2.7
			c2.2,0.7,4.6,1.3,7,2c2.4,0.7,4.8,1.6,7,2.8c2.2,1.2,4,2.9,5.4,5c1.4,2.1,2.1,5,2.1,8.5c0,4.8-1.7,8.6-5.2,11.5
			C959.7,138.8,954.8,140.2,948.5,140.2z"/>
	</g>
</g>
</svg>
